mtllib model_22.mtl
o model_22
v -31640.2734375 4380.89111328125 11260.3935546875 
v -31640.2734375 5481.40380859375 16898.50390625 
v -29068.931640625 4380.89111328125 11260.39453125 
v -29068.931640625 5481.40380859375 16898.50390625 
v -29068.931640625 304.9169921875 12015.1015625 
v -29068.931640625 2098.345703125 12015.1015625 
v -29068.931640625 304.9169921875 16898.50390625 
v -29068.931640625 2954.300048828125 16898.50390625 
v -29068.931640625 3851.014404296875 12015.1015625 
v -29068.931640625 5481.40380859375 16898.50390625 
v -29068.931640625 4380.89111328125 11260.39453125 
v -31640.2734375 4380.89111328125 11260.3935546875 
v -29068.931640625 4380.89111328125 11260.39453125 
v -31620.02734375 3851.014404296875 12015.1015625 
v -29068.931640625 3851.014404296875 12015.1015625 
v -31620.02734375 2098.345703125 12015.1015625 
v -29068.931640625 2098.345703125 12015.1015625 
v -31620.02734375 304.9169921875 12015.1015625 
v -29068.931640625 304.9169921875 12015.1015625 
v -31640.2734375 4380.89111328125 11260.3935546875 
v -31620.02734375 3851.014404296875 12015.1015625 
v -31640.2734375 5481.40380859375 16898.50390625 
v -31620.02734375 2954.300048828125 16898.50390625 
v -31620.02734375 2098.345703125 12015.1015625 
v -31620.02734375 304.9169921875 16898.50390625 
v -31620.02734375 304.9169921875 12015.1015625 
v -31640.2734375 5481.40380859375 16898.50390625 
v -31620.02734375 2954.300048828125 16898.50390625 
v -29068.931640625 5481.40380859375 16898.50390625 
v -29068.931640625 2954.300048828125 16898.50390625 
v -29068.931640625 304.9169921875 16898.50390625 
v -31620.02734375 304.9169921875 16898.50390625 
vn 3.97490318437832e-10 0.046715475618839264 -0.009093514643609524 
vn 3.97490318437832e-10 0.046715475618839264 -0.009093514643609524 
vn 3.97490318437832e-10 0.046715475618839264 -0.009093514643609524 
vn 3.97490318437832e-10 0.046715475618839264 -0.009093514643609524 
vn 0.04515191912651062 0.0001039746348396875 1.973634145002734e-9 
vn 0.04515191912651062 0.0001039746348396875 1.973634145002734e-9 
vn 0.04515191912651062 0.0001039746348396875 1.973634145002734e-9 
vn 0.04515191912651062 0.0001039746348396875 1.973634145002734e-9 
vn 0.04515191912651062 0.0001039746348396875 1.973634145002734e-9 
vn 0.04515191912651062 0.0001039746348396875 1.973634145002734e-9 
vn 0.04515191912651062 0.0001039746348396875 1.973634145002734e-9 
vn 1.2095107138065941e-9 -0.038721803575754166 -0.027670368552207947 
vn 1.2095107138065941e-9 -0.038721803575754166 -0.027670368552207947 
vn 1.8467274376376963e-9 -0.021911608055233955 -0.042248181998729706 
vn 1.8508946597606268e-9 -0.021726801991462708 -0.042343515902757645 
vn 2.080321692687903e-9 0.0001039746348396875 -0.04759219288825989 
vn 2.080321692687903e-9 0.0001039746348396875 -0.04759219288825989 
vn 2.080321692687903e-9 0.0001039746348396875 -0.04759219288825989 
vn 2.080321692687903e-9 0.0001039746348396875 -0.04759219288825989 
vn -0.045151058584451675 -0.0003119219036307186 -1.9736063894271183e-9 
vn -0.045151058584451675 -0.0003119219036307186 -1.9736063894271183e-9 
vn -0.045151058584451675 -0.0003119219036307186 -1.9736063894271183e-9 
vn -0.04515191912651062 -0.0001039746348396875 -1.9736439149653506e-9 
vn -0.04515191912651062 0.0001039746348396875 -1.9736439149653506e-9 
vn -0.04515191912651062 0.0001039746348396875 -1.9736439149653506e-9 
vn -0.04515191912651062 0.0001039746348396875 -1.9736439149653506e-9 
vn -2.0803123668144963e-9 0.0001039746348396875 0.04759219288825989 
vn -2.0803123668144963e-9 0.0001039746348396875 0.04759219288825989 
vn -2.0803123668144963e-9 0.0001039746348396875 0.04759219288825989 
vn -2.0803123668144963e-9 0.0001039746348396875 0.04759219288825989 
vn -2.0803123668144963e-9 0.0001039746348396875 0.04759219288825989 
vn -2.0803123668144963e-9 0.0001039746348396875 0.04759219288825989 
vt 0.9840710163116455 0.9851325750350952 
vt 0.34887295961380005 0.9851325750350952 
vt 0.9840710163116455 0.7103040218353271 
vt 0.34887295961380005 0.7103040218353271 
vt 0.918785810470581 0.020642299205064774 
vt 0.918785810470581 0.17183330655097961 
vt 0.504325270652771 0.020642299205064774 
vt 0.504325270652771 0.24636904895305634 
vt 0.918785810470581 0.32102254033088684 
vt 0.504325270652771 0.4591433107852936 
vt 0.9819383025169373 0.36600303649902344 
vt 0.32197684049606323 0.9846615791320801 
vt 0.014034340158104897 0.9846615791320801 
vt 0.3204365372657776 0.8906970620155334 
vt 0.014034340158104897 0.8906970620155334 
vt 0.3204365372657776 0.6683850288391113 
vt 0.014034340158104897 0.6683850288391113 
vt 0.3204365372657776 0.443129301071167 
vt 0.014034340158104897 0.443129301071167 
vt 0.0135604003444314 0.36788704991340637 
vt 0.07659441977739334 0.322788804769516 
vt 0.4911734461784363 0.46079179644584656 
vt 0.4910549521446228 0.2480175495147705 
vt 0.07659441977739334 0.17359955608844757 
vt 0.4910549521446228 0.022290799766778946 
vt 0.07647593319416046 0.02240855060517788 
vt 0.5222164988517761 0.47821879386901855 
vt 0.7455607056617737 0.47916078567504883 
vt 0.5222164988517761 0.6951143145561218 
vt 0.7455607056617737 0.6951143145561218 
vt 0.9826492071151733 0.6951143145561218 
vt 0.9826492071151733 0.47916078567504883 
s on 
f 1/1/1 2/2/2 3/3/3 
f 2/2/2 4/4/4 3/3/3 
f 3/3/3 4/4/4 4/4/4 
f 4/4/4 5/5/5 4/4/4 
f 4/4/4 5/5/5 5/5/5 
f 5/5/5 6/6/6 5/5/5 
f 5/5/5 6/6/6 7/7/7 
f 6/6/6 6/6/6 7/7/7 
f 7/7/7 6/6/6 8/8/8 
f 6/6/6 9/9/9 8/8/8 
f 8/8/8 9/9/9 10/10/10 
f 9/9/9 11/11/11 10/10/10 
f 10/10/10 11/11/11 11/11/11 
f 11/11/11 12/12/12 11/11/11 
f 11/11/11 12/12/12 12/12/12 
f 12/12/12 13/13/13 12/12/12 
f 12/12/12 13/13/13 14/14/14 
f 13/13/13 15/15/15 14/14/14 
f 14/14/14 15/15/15 16/16/16 
f 15/15/15 17/17/17 16/16/16 
f 16/16/16 17/17/17 18/18/18 
f 17/17/17 19/19/19 18/18/18 
f 18/18/18 19/19/19 19/19/19 
f 19/19/19 20/20/20 19/19/19 
f 19/19/19 20/20/20 20/20/20 
f 20/20/20 21/21/21 20/20/20 
f 20/20/20 21/21/21 22/22/22 
f 21/21/21 21/21/21 22/22/22 
f 22/22/22 21/21/21 23/23/23 
f 21/21/21 24/24/24 23/23/23 
f 23/23/23 24/24/24 25/25/25 
f 24/24/24 26/26/26 25/25/25 
f 25/25/25 26/26/26 26/26/26 
f 26/26/26 27/27/27 26/26/26 
f 26/26/26 27/27/27 27/27/27 
f 27/27/27 28/28/28 27/27/27 
f 27/27/27 28/28/28 29/29/29 
f 28/28/28 28/28/28 29/29/29 
f 29/29/29 28/28/28 30/30/30 
f 28/28/28 28/28/28 30/30/30 
f 30/30/30 28/28/28 31/31/31 
f 28/28/28 32/32/32 31/31/31 

