mtllib model_29.mtl
o model_29
v -19652.8515625 299.9767761230469 -10051.4599609375 
v -19652.8515625 299.9767761230469 -14527.447265625 
v -19634.513671875 2858.2421875 -10051.4599609375 
v -19634.513671875 2858.2421875 -14527.447265625 
v -19909.583984375 3532.949462890625 -14527.447265625 
v -19909.583984375 3532.949462890625 -10051.4599609375 
v -20386.369140625 3870.30322265625 -10051.4599609375 
v -20386.369140625 3870.30322265625 -14527.447265625 
v -21193.23828125 3870.30322265625 -14527.447265625 
v -21193.23828125 3870.30322265625 -10051.4599609375 
v -21670.025390625 3532.949462890625 -10051.4599609375 
v -21670.025390625 3532.949462890625 -14527.447265625 
v -21963.43359375 2858.2421875 -10051.4599609375 
v -21963.43359375 2858.2421875 -14527.447265625 
v -21945.095703125 299.9767761230469 -14527.447265625 
v -21945.09375 299.9767761230469 -10051.4599609375 
v -19817.892578125 299.9767761230469 -10051.4599609375 
v -19817.892578125 2830.12939453125 -10051.4599609375 
v -19652.8515625 299.9767761230469 -10051.4599609375 
v -19634.513671875 2858.2421875 -10051.4599609375 
v -20037.94921875 3364.272705078125 -10051.4599609375 
v -19909.583984375 3532.949462890625 -10051.4599609375 
v -20404.70703125 3645.40087890625 -10051.4599609375 
v -20386.369140625 3870.30322265625 -10051.4599609375 
v -21193.23828125 3870.30322265625 -10051.4599609375 
v -21174.900390625 3645.40087890625 -10051.4599609375 
v -21670.025390625 3532.949462890625 -10051.4599609375 
v -21541.66015625 3364.272705078125 -10051.4599609375 
v -21963.43359375 2858.2421875 -10051.4599609375 
v -21780.052734375 2830.12939453125 -10051.4599609375 
v -21945.09375 299.9767761230469 -10051.4599609375 
v -21761.71484375 299.9767761230469 -10051.4599609375 
v -21761.71484375 299.9767761230469 -10051.4599609375 
v -21780.052734375 2830.12939453125 -10051.4599609375 
v -21761.71484375 299.9767761230469 -14527.447265625 
v -21780.052734375 2830.12939453125 -14527.447265625 
v -21541.66015625 3364.272705078125 -10051.4599609375 
v -21541.66015625 3364.272705078125 -14527.447265625 
v -21174.900390625 3645.40087890625 -14527.447265625 
v -21174.900390625 3645.40087890625 -10051.4599609375 
v -20404.70703125 3645.40087890625 -10051.4599609375 
v -20404.70703125 3645.40087890625 -14527.447265625 
v -20037.94921875 3364.272705078125 -14527.447265625 
v -20037.94921875 3364.272705078125 -10051.4599609375 
v -19817.892578125 2830.12939453125 -10051.4599609375 
v -19817.89453125 2830.12939453125 -14527.447265625 
v -19817.89453125 299.9767761230469 -14527.447265625 
v -19817.892578125 299.9767761230469 -10051.4599609375 
vn 0.0371641144156456 -0.00024358034715987742 -1.6245034206718856e-9 
vn 0.0371641144156456 -0.00024358034715987742 -1.6245034206718856e-9 
vn 0.036464523524045944 0.007180821616202593 0.00007010662375250831 
vn 0.036464523524045944 0.007180821616202593 0.00007010662375250831 
vn 0.029315125197172165 0.022844018414616585 0.00007008726970525458 
vn 0.029315125197172165 0.022844018414616585 0.00007008726970525458 
vn 0.011653502471745014 0.035290323197841644 0.00013974113971926272 
vn 0.011653502471745014 0.035290323197841644 0.00013974113971926272 
vn -0.011653502471745014 0.035290323197841644 0.0001397421583533287 
vn -0.011653502471745014 0.035290323197841644 0.0001397421583533287 
vn -0.02901291847229004 0.023226313292980194 0.00014022814866621047 
vn -0.02901291847229004 0.023226313292980194 0.00014022814866621047 
vn -0.036367267370224 0.007658175192773342 -0.00007009122055023909 
vn -0.036367267370224 0.007658175192773342 -0.00007009122055023909 
vn -0.0371641144156456 -0.00024358034715987742 1.6245110812107555e-9 
vn -0.0371641144156456 -0.00024358034715987742 1.6245110812107555e-9 
vn 1.6245306211359889e-9 0.00008119396807160228 0.03716482222080231 
vn 1.6245306211359889e-9 -0.00008119396807160228 0.03716482222080231 
vn 1.6245306211359889e-9 0.00008119396807160228 0.03716482222080231 
vn 1.6245306211359889e-9 -0.00008119396807160228 0.03716482222080231 
vn 1.6245306211359889e-9 0.00008119396807160228 0.03716482222080231 
vn 1.6245306211359889e-9 0.00008119396807160228 0.03716482222080231 
vn 1.6245306211359889e-9 0.00008119396807160228 0.03716482222080231 
vn 1.6245306211359889e-9 0.00008119396807160228 0.03716482222080231 
vn 1.6245306211359889e-9 0.00008119396807160228 0.03716482222080231 
vn 1.6245306211359889e-9 0.00008119396807160228 0.03716482222080231 
vn 1.6245306211359889e-9 -0.00008119396807160228 0.03716482222080231 
vn 1.6245306211359889e-9 -0.00008119396807160228 0.03716482222080231 
vn 1.6245306211359889e-9 -0.00008119396807160228 0.03716482222080231 
vn 1.6245306211359889e-9 -0.00008119396807160228 0.03716482222080231 
vn 1.6245306211359889e-9 0.00008119396807160228 0.03716482222080231 
vn 1.6245306211359889e-9 0.00008119396807160228 0.03716482222080231 
vn 0.0371641144156456 0.00024358034715987742 -1.6245034206718856e-9 
vn 0.03633345663547516 -0.007817004807293415 0.00007019832992227748 
vn 0.0371641144156456 0.00024358034715987742 -1.6245034206718856e-9 
vn 0.03633345663547516 -0.007817004807293415 0.00007019832992227748 
vn 0.02931520901620388 -0.022844018414616585 -1.2814150851525596e-9 
vn 0.02931520901620388 -0.022844018414616585 -1.2814150851525596e-9 
vn 0.012268511578440666 -0.03508125618100166 -0.00014067336451262236 
vn 0.012268511578440666 -0.03508125618100166 -0.00014067336451262236 
vn -0.012268511578440666 -0.03508125618100166 -0.00014067228767089546 
vn -0.012268511578440666 -0.03508125618100166 -0.00014067228767089546 
vn -0.029612040147185326 -0.022457797080278397 -0.00007015643495833501 
vn -0.029612040147185326 -0.022457797080278397 -0.00007015643495833501 
vn -0.036432866007089615 -0.007340081036090851 1.59254698317568e-9 
vn -0.036432866007089615 -0.007340081036090851 1.59254698317568e-9 
vn -0.0371641144156456 0.00024358034715987742 1.6245110812107555e-9 
vn -0.0371641144156456 0.00024358034715987742 1.6245110812107555e-9 
vt 0.5102588534355164 0.06871404498815536 
vt 0.9756457805633545 0.05970950052142143 
vt 0.5134128332138062 0.33263304829597473 
vt 0.9802015423774719 0.3250220715999603 
vt 0.9814864993095398 0.4004887640476227 
vt 0.5153986215591431 0.40413346886634827 
vt 0.5163331627845764 0.4584823548793793 
vt 0.9820705652236938 0.4579463601112366 
vt 0.9820705652236938 0.5387728810310364 
vt 0.5163331627845764 0.5382369160652161 
vt 0.5152818560600281 0.5925858020782471 
vt 0.9814864993095398 0.5962305068969727 
vt 0.5134128332138062 0.6649437546730042 
vt 0.9802015423774719 0.6724475622177124 
vt 0.9756457805633545 0.9377601146697998 
vt 0.5102588534355164 0.9287555813789368 
vt 0.492035835981369 0.07075078785419464 
vt 0.49495619535446167 0.33606335520744324 
vt 0.5102588534355164 0.06871404498815536 
vt 0.5134128332138062 0.33263304829597473 
vt 0.4956570863723755 0.4015607237815857 
vt 0.5153986215591431 0.40413346886634827 
vt 0.49577388167381287 0.45451605319976807 
vt 0.5163331627845764 0.4584823548793793 
vt 0.5163331627845764 0.5382369160652161 
vt 0.49577388167381287 0.5422031879425049 
vt 0.5152818560600281 0.5925858020782471 
vt 0.4956570863723755 0.5950512886047363 
vt 0.5134128332138062 0.6649437546730042 
vt 0.49495619535446167 0.6612990498542786 
vt 0.5102588534355164 0.9287555813789368 
vt 0.492035835981369 0.9266116619110107 
vt 0.492035835981369 0.9266116619110107 
vt 0.49495619535446167 0.6612990498542786 
vt 0.025247100740671158 0.9183574914932251 
vt 0.029101962223649025 0.6543312668800354 
vt 0.4956570863723755 0.5950512886047363 
vt 0.029569217935204506 0.5917282104492188 
vt 0.029569217935204506 0.5417743921279907 
vt 0.49577388167381287 0.5422031879425049 
vt 0.49577388167381287 0.45451605319976807 
vt 0.029569217935204506 0.4549448490142822 
vt 0.029569217935204506 0.4049910306930542 
vt 0.4956570863723755 0.4015607237815857 
vt 0.49495619535446167 0.33606335520744324 
vt 0.029101962223649025 0.3430311679840088 
vt 0.025247100740671158 0.07911215722560883 
vt 0.492035835981369 0.07075078785419464 
s on 
f 1/1/1 2/2/2 3/3/3 
f 2/2/2 4/4/4 3/3/3 
f 3/3/3 4/4/4 3/3/3 
f 4/4/4 5/5/5 3/3/3 
f 3/3/3 5/5/5 6/6/6 
f 5/5/5 5/5/5 6/6/6 
f 6/6/6 5/5/5 7/7/7 
f 5/5/5 8/8/8 7/7/7 
f 7/7/7 8/8/8 7/7/7 
f 8/8/8 9/9/9 7/7/7 
f 7/7/7 9/9/9 10/10/10 
f 9/9/9 9/9/9 10/10/10 
f 10/10/10 9/9/9 11/11/11 
f 9/9/9 12/12/12 11/11/11 
f 11/11/11 12/12/12 13/13/13 
f 12/12/12 14/14/14 13/13/13 
f 13/13/13 14/14/14 13/13/13 
f 14/14/14 15/15/15 13/13/13 
f 13/13/13 15/15/15 16/16/16 
f 15/15/15 16/16/16 16/16/16 
f 16/16/16 16/16/16 17/17/17 
f 16/16/16 17/17/17 17/17/17 
f 17/17/17 17/17/17 18/18/18 
f 17/17/17 19/19/19 18/18/18 
f 18/18/18 19/19/19 18/18/18 
f 19/19/19 20/20/20 18/18/18 
f 18/18/18 20/20/20 21/21/21 
f 20/20/20 22/22/22 21/21/21 
f 21/21/21 22/22/22 23/23/23 
f 22/22/22 24/24/24 23/23/23 
f 23/23/23 24/24/24 23/23/23 
f 24/24/24 25/25/25 23/23/23 
f 23/23/23 25/25/25 26/26/26 
f 25/25/25 27/27/27 26/26/26 
f 26/26/26 27/27/27 28/28/28 
f 27/27/27 29/29/29 28/28/28 
f 28/28/28 29/29/29 30/30/30 
f 29/29/29 31/31/31 30/30/30 
f 30/30/30 31/31/31 32/32/32 
f 31/31/31 32/32/32 32/32/32 
f 32/32/32 32/32/32 33/33/33 
f 32/32/32 33/33/33 33/33/33 
f 33/33/33 33/33/33 34/34/34 
f 33/33/33 35/35/35 34/34/34 
f 34/34/34 35/35/35 34/34/34 
f 35/35/35 36/36/36 34/34/34 
f 34/34/34 36/36/36 37/37/37 
f 36/36/36 38/38/38 37/37/37 
f 37/37/37 38/38/38 37/37/37 
f 38/38/38 39/39/39 37/37/37 
f 37/37/37 39/39/39 40/40/40 
f 39/39/39 39/39/39 40/40/40 
f 40/40/40 39/39/39 41/41/41 
f 39/39/39 42/42/42 41/41/41 
f 41/41/41 42/42/42 41/41/41 
f 42/42/42 43/43/43 41/41/41 
f 41/41/41 43/43/43 44/44/44 
f 43/43/43 43/43/43 44/44/44 
f 44/44/44 43/43/43 45/45/45 
f 43/43/43 46/46/46 45/45/45 
f 45/45/45 46/46/46 45/45/45 
f 46/46/46 47/47/47 45/45/45 
f 45/45/45 47/47/47 48/48/48 

